<?xml version="1.0" encoding="UTF-8"?><svg id="Modo_de_aislamiento" xmlns="http://www.w3.org/2000/svg" viewBox="0 0 1038.85 877.5"><defs><style>.cls-1{fill:#323634;}.cls-2{fill:#85c440;}</style></defs><path id="Fill-12" class="cls-1" d="m480.9,387.08c-5.78-12.47-15.34-22.92-27.41-29.96-13.25-8.66-28.58-13.83-44.5-14.99-23.12-3.29-46.62,2.72-65.08,16.64-18.87,13.1-30.29,34.07-30.82,56.6-3.63,21.96,2.6,44.39,17.12,61.59,13.3,16.57,33.22,26.85,54.79,28.29,17.22,1.7,34.57-1.79,49.68-10-2.58,15.02-9.74,28.94-20.55,39.96-9.83,9.66-23.91,14.01-37.67,11.65-6.8-.44-13.33-2.75-18.84-6.66l-32.54,36.62c5.86,4.03,12.18,7.38,18.84,9.98,10.29,4.51,21.29,7.33,32.54,8.33,26.56,2.94,53.19-4.88,73.63-21.63,11.25-10.56,20.52-22.95,27.39-36.62,7.57-18.73,12.74-38.29,15.4-58.25,3.86-31.01-.25-62.46-11.99-91.54h.02Zm-56.51,64.9c-8.51,5.67-18.9,8.05-29.12,6.66-9.67-.62-18.51-5.53-23.97-13.32-4.85-8.06-7.23-17.3-6.85-26.64.76-8.98,5.05-17.32,11.99-23.3,7.48-6.4,17.69-8.88,27.39-6.66,10.03.98,19.26,5.76,25.69,13.32,6.12,7.56,9.17,17.04,8.57,26.64-1.77,9.03-6.59,17.23-13.7,23.3h.02Z"/><path id="Fill-13" class="cls-1" d="m670.99,387.08c-5.78-12.47-15.34-22.92-27.41-29.96-13.25-8.66-28.58-13.83-44.5-14.99-23.12-3.29-46.62,2.72-65.08,16.64-18.88,13.09-30.31,34.06-30.84,56.6-3.63,21.96,2.6,44.39,17.12,61.59,13.31,16.57,33.24,26.85,54.81,28.29,17.22,1.7,34.55-1.79,49.66-10-2.58,15.02-9.74,28.94-20.55,39.96-9.83,9.66-23.91,14.01-37.67,11.65-6.8-.44-13.33-2.75-18.84-6.66l-32.54,36.62c5.86,4.03,12.18,7.38,18.84,9.98,10.29,4.52,21.29,7.33,32.54,8.33,26.56,2.94,53.19-4.88,73.63-21.63,11.25-10.56,20.52-22.95,27.39-36.62,7.57-18.73,12.75-38.29,15.42-58.25,4.72-31.01.57-62.67-11.99-91.54h.02Zm-56.51,64.92c-8.51,5.68-18.9,8.05-29.12,6.66-9.67-.62-18.51-5.53-23.97-13.32-4.85-8.06-7.23-17.3-6.85-26.64.76-8.98,5.05-17.32,11.99-23.3,7.48-6.4,17.69-8.88,27.39-6.66,10.03.98,19.26,5.76,25.69,13.32,6.12,7.56,9.17,17.04,8.57,26.64-1.77,9.03-6.59,17.23-13.7,23.3h.02Z"/><path id="Fill-14" class="cls-2" d="m813.11,307.2l53.07-51.61s-34.24-84.88-157.52-154.78l-53.07,51.61,61.64,59.92-13.7,13.32c-135.2-112.18-338.37-96.59-453.79,34.82-50.14,57.09-77.49,129.8-77.06,204.86.9,172.82,145.76,312.21,323.55,311.33,177.8-.87,321.21-141.67,320.31-314.49-.38-73.92-27.68-145.33-77.05-201.56l13.7-13.32,59.92,59.9Zm-66.78,153.13c.45,136.48-112.98,247.5-253.4,247.99-140.92.92-255.92-109.37-256.87-246.34-.95-136.97,112.52-248.75,253.44-249.67,140.92-.92,255.92,109.37,256.87,246.34,0,.56,0,1.12,0,1.68h-.04Z"/></svg>