<?xml version="1.0" encoding="UTF-8" standalone="no" ?>
<!DOCTYPE svg PUBLIC "-//W3C//DTD SVG 1.1//EN" "http://www.w3.org/Graphics/SVG/1.1/DTD/svg11.dtd">
<svg xmlns="http://www.w3.org/2000/svg" xmlns:xlink="http://www.w3.org/1999/xlink" version="1.1" width="500" height="500" viewBox="0 0 500 500" xml:space="preserve">
<desc>Created with Fabric.js 3.6.3</desc>
<defs>
</defs>
<rect x="0" y="0" width="100%" height="100%" fill="#2C2233"></rect>
<g transform="matrix(0.2 0 0 0.20000000000000004 248.04800000000003 248.395)"  >
<g style=""   >
		<g transform="matrix(1 0 0 1 -727.82 -230.07499999999993)"  >
<path style="stroke: rgb(123,95,142); stroke-width: 14; stroke-dasharray: none; stroke-linecap: butt; stroke-dashoffset: 0; stroke-linejoin: miter; stroke-miterlimit: 10; fill: none; fill-rule: nonzero; opacity: 1;"  transform=" translate(-22.74, -520.48)" d="M 22.74 520.48" stroke-linecap="round" />
</g>
		<g transform="matrix(1 0 0 1 -0.00404162377526518 -0.002834467120010231)"  >
<path style="stroke: none; stroke-width: 1; stroke-dasharray: none; stroke-linecap: butt; stroke-dashoffset: 0; stroke-linejoin: miter; stroke-miterlimit: 4; fill: rgb(123,95,142); fill-rule: nonzero; opacity: 1;"  transform=" translate(-750.5559583762248, -750.5521655328799)" d="M 37.74 520.48 V 142.22 c 0 -16.18 0.9 -31.8 7.3 -47 c 14.24 -33.86 48.23 -56.73 84.82 -57.46 c 10.95 -0.22 21.92 0 32.87 0 H 1358.29 c 3.56 0 7.13 0 10.7 0 c 30 0.2 59.36 14.38 76.72 39.13 c 11.9 17 17.64 36.25 17.68 56.87 c 0 5.14 0 10.28 0 15.42 V 1346.94 c 0 19.62 0.72 38.37 -6.6 57.19 c -13 33.59 -46.52 57.48 -82.46 59.14 c -4.18 0.19 -8.38 0.12 -12.56 0.12 H 169.22 c -12.32 0 -24.65 0.08 -37 0 c -29.3 -0.19 -57.22 -13.51 -75.14 -36.81 c -14.06 -18.28 -19.36 -39.81 -19.36 -62.44 V 997.09 c 0 -19.31 -30 -19.34 -30 0 v 259.13 q 0 55.17 0 110.35 c 0 30.84 10 59.75 29.93 83.43 c 23.23 27.65 58.54 43.14 94.43 43.39 c 12 0.08 24 0 36.05 0 H 1363.88 a 155.56 155.56 0 0 0 31.33 -2.75 c 41.54 -8.5 75.57 -39.27 90.51 -78.53 c 8 -21.16 7.67 -42.71 7.67 -64.74 V 145.57 c 0 -4.3 0 -8.61 0 -12.92 a 126.79 126.79 0 0 0 -30.55 -82.25 C 1439.56 23.2 1404.61 8 1369 7.74 c -3.57 0 -7.15 0 -10.72 0 H 157.5 c -17.59 0 -35.22 -0.75 -52.54 3 C 63.49 19.58 29.73 50.53 15.07 89.93 C 8.72 107 7.74 124.79 7.74 142.74 V 520.48 c 0 19.3 30 19.33 30 0 Z" stroke-linecap="round" />
</g>
</g>
</g>
<g transform="matrix(1 0 0 1 249.68000000000004 273.477)" style=""  ><path fill="#ffffff" opacity="1" d="M-153.84 3.53C-154.30 3.53-154.98 3.30-155.44 3.30L-156.70 3.30C-157.16 3.30-157.50 3.64-157.50 4.10L-157.50 6.62C-157.50 7.08-157.16 7.42-156.70 7.42L-153.61 7.42C-148.34 7.42-146.05 5.13-146.05 1.10L-146.05-8.03C-146.05-8.49-146.40-8.84-146.85-8.84L-150.29-8.84C-150.75-8.84-151.09-8.49-151.09-8.03L-151.09 1.01C-151.09 2.61-152.01 3.53-153.61 3.53Z"/><path fill="#ffffff" opacity="1" d="M-130.34 7.19C-129.66 7.19-129.22 6.74-129.08 6.39L-126.01-1.16L-125.79-1.16L-125.79 6.39C-125.79 6.85-125.44 7.19-124.98 7.19L-121.55 7.19C-121.09 7.19-120.75 6.85-120.75 6.39L-120.75-8.03C-120.75-8.49-121.09-8.84-121.55-8.84L-126.36-8.84C-127.05-8.84-127.48-8.38-127.62-8.03L-131.63 1.70L-131.85 1.70L-135.86-8.03C-136.00-8.38-136.43-8.84-137.12-8.84L-141.93-8.84C-142.39-8.84-142.73-8.49-142.73-8.03L-142.73 6.39C-142.73 6.85-142.39 7.19-141.93 7.19L-138.50 7.19C-138.04 7.19-137.69 6.85-137.69 6.39L-137.69-1.16L-137.46-1.16L-134.37 6.39C-134.24 6.74-133.80 7.19-133.11 7.19Z"/><path fill="#ffffff" opacity="1" d="M-105.63 0.32L-111.36-8.03C-111.59-8.38-112.05-8.84-112.62-8.84L-116.51-8.84C-116.97-8.84-117.31-8.49-117.31-8.03L-117.31 6.39C-117.31 6.85-116.97 7.19-116.51 7.19L-113.08 7.19C-112.62 7.19-112.27 6.85-112.27 6.39L-112.27-1.97L-112.05-1.97L-106.32 6.39C-106.09 6.74-105.63 7.19-105.06 7.19L-101.17 7.19C-100.71 7.19-100.37 6.85-100.37 6.39L-100.37-8.03C-100.37-8.49-100.71-8.84-101.17-8.84L-104.60-8.84C-105.06-8.84-105.40-8.49-105.40-8.03L-105.40 0.32Z"/><path fill="#ffffff" opacity="1" d="M-88.23 3.87C-90.75 3.87-92.35 2.27-92.35-0.82C-92.35-3.91-90.75-5.52-88.23-5.52C-85.71-5.52-84.11-3.91-84.11-0.82C-84.11 2.27-85.71 3.87-88.23 3.87ZM-88.23-9.29C-94.30-9.29-97.62-5.97-97.62-0.82C-97.62 4.33-94.30 7.65-88.23 7.65C-82.16 7.65-78.84 4.33-78.84-0.82C-78.84-5.97-82.16-9.29-88.23-9.29Z"/><path fill="#ffffff" opacity="1" d="M-72.93-8.03C-73.12-8.49-73.50-8.84-73.96-8.84L-77.63-8.84C-78.08-8.84-78.41-8.49-78.20-8.03L-72.02 6.39C-71.81 6.85-71.44 7.19-70.99 7.19L-66.29 7.17C-65.83 7.17-65.47 6.85-65.26 6.39L-59.08-8.03C-58.87-8.49-59.19-8.84-59.65-8.84L-63.54-8.84C-64.00-8.84-64.39-8.49-64.57-8.03L-68.58 2.38L-68.81 2.38Z"/><path fill="#ffffff" opacity="1" d="M-45.77 6.39C-45.59 6.85-45.20 7.19-44.74 7.19L-40.85 7.19C-40.39 7.19-40.07 6.85-40.28 6.39L-46.69-8.06C-46.89-8.52-47.26-8.84-47.72-8.84L-52.41-8.84C-52.87-8.84-53.24-8.49-53.44-8.03L-59.86 6.39C-60.06 6.85-59.74 7.19-59.28 7.19L-55.62 7.19C-55.16 7.19-54.77 6.85-54.59 6.39L-53.79 4.33L-46.57 4.33ZM-50.24-4.03L-50.01-4.03L-48.18 0.55L-52.18 0.55Z"/><path fill="#ffffff" opacity="1" d="M-26.81-1.28C-26.81-1.28-25.30-1.74-24.06-4.03L-21.89-8.03C-21.71-8.38-21.89-8.84-22.46-8.84L-26.01-8.84C-26.93-8.84-27.25-8.49-27.50-8.03L-29.67-4.03C-30.04-3.34-30.48-2.88-31.74-2.88L-33.45-2.88L-33.45-8.03C-33.45-8.49-33.80-8.84-34.25-8.84L-37.69-8.84C-38.15-8.84-38.49-8.49-38.49-8.03L-38.49 6.39C-38.49 6.85-38.15 7.19-37.69 7.19L-34.25 7.19C-33.80 7.19-33.45 6.85-33.45 6.39L-33.45 1.01L-31.39 1.01C-30.13 1.01-29.70 1.47-29.33 2.16L-27.04 6.39C-26.79 6.85-26.47 7.19-25.55 7.19L-22.00 7.19C-21.43 7.19-21.25 6.74-21.43 6.39L-23.72 2.16C-25.21-0.59-26.81-1.05-26.81-1.05Z"/><path fill="#ffffff" opacity="1" d="M-11.06 3.87C-13.58 3.87-15.18 2.27-15.18-0.82C-15.18-3.91-13.58-5.52-11.06-5.52C-8.54-5.52-6.93-3.91-6.93-0.82C-6.93 2.27-8.54 3.87-11.06 3.87ZM-11.06-9.29C-17.13-9.29-20.45-5.97-20.45-0.82C-20.45 4.33-17.13 7.65-11.06 7.65C-4.99 7.65-1.67 4.33-1.67-0.82C-1.67-5.97-4.99-9.29-11.06-9.29Z"/><path fill="#ffffff" opacity="1" d="M4.24-8.03C4.06-8.49 3.67-8.84 3.21-8.84L-0.45-8.84C-0.91-8.84-1.23-8.49-1.03-8.03L5.16 6.39C5.36 6.85 5.73 7.19 6.19 7.19L10.88 7.17C11.34 7.17 11.71 6.85 11.91 6.39L18.10-8.03C18.30-8.49 17.98-8.84 17.52-8.84L13.63-8.84C13.17-8.84 12.78-8.49 12.60-8.03L8.59 2.38L8.36 2.38Z"/><path fill="#ffffff" opacity="1" d="M29.96-8.03C29.96-8.49 29.61-8.84 29.16-8.84L19.77-8.84C19.31-8.84 18.97-8.49 18.97-8.03L18.97-5.74C18.97-5.29 19.31-4.94 19.77-4.94L21.94-4.94L21.94 3.30L19.77 3.30C19.31 3.30 18.97 3.64 18.97 4.10L18.97 6.39C18.97 6.85 19.31 7.19 19.77 7.19L29.16 7.19C29.61 7.19 29.96 6.85 29.96 6.39L29.96 4.10C29.96 3.64 29.61 3.30 29.16 3.30L26.98 3.30L26.98-4.94L29.16-4.94C29.61-4.94 29.96-5.29 29.96-5.74Z"/><path fill="#ffffff" opacity="1" d="M41.18-9.29C35.11-9.29 31.79-5.97 31.79-0.82C31.79 4.33 35.11 7.65 41.18 7.65C46.67 7.65 49.65 4.67 49.65 1.93C49.65 1.35 49.31 1.01 48.74 1.01L45.87 1.01C45.19 1.01 44.82 1.35 44.50 1.93C43.93 2.96 43.01 3.87 41.18 3.87C38.66 3.87 37.06 2.27 37.06-0.82C37.06-3.91 38.66-5.52 41.18-5.52C42.90-5.52 43.70-4.71 44.27-3.80C44.61-3.23 44.96-2.88 45.64-2.88L48.51-2.88C49.08-2.88 49.42-3.23 49.42-3.80C49.42-6.43 46.56-9.29 41.18-9.29Z"/></g><g transform="matrix(1.820785 0 0 1.820785 114.54010000000005 235.20785)"  >
<circle style="stroke: none; stroke-width: 0; stroke-dasharray: none; stroke-linecap: butt; stroke-dashoffset: 0; stroke-linejoin: miter; stroke-miterlimit: 4; fill: rgb(255,255,255); fill-rule: nonzero; opacity: 1;"  cx="0" cy="0" r="10" />
</g>
</svg>